<svg xmlns="http://www.w3.org/2000/svg" viewBox="0 0 32 32" aria-hidden="true">
  <path fill="#fff" d="M16.02 3.2A12.65 12.65 0 0 0 5.1 22.25L3.6 28.8l6.68-1.57A12.64 12.64 0 1 0 16.02 3.2Zm0 2.24a10.4 10.4 0 0 1 8.88 15.83 10.4 10.4 0 0 1-13.82 3.74l-.46-.25-4.06.95.92-4-.27-.48A10.41 10.41 0 0 1 16.02 5.44Zm-4.1 5.3c-.23 0-.59.08-.9.43-.3.34-1.18 1.15-1.18 2.8 0 1.66 1.2 3.27 1.37 3.5.17.22 2.34 3.75 5.78 5.1 2.86 1.13 3.44.9 4.07.84.62-.06 2-.82 2.28-1.6.28-.8.28-1.47.2-1.61-.09-.14-.31-.23-.65-.4-.34-.17-2-.98-2.3-1.09-.31-.11-.54-.17-.76.17-.23.34-.88 1.09-1.08 1.31-.2.23-.4.26-.74.09-.34-.17-1.44-.53-2.74-1.7a10.25 10.25 0 0 1-1.9-2.35c-.2-.34-.02-.52.15-.69.15-.15.34-.4.51-.6.17-.2.23-.34.34-.57.11-.23.06-.43-.03-.6-.08-.17-.76-1.84-1.04-2.52-.27-.65-.55-.56-.76-.57-.2-.01-.43-.01-.65-.01Z"/>
</svg>
